<svg height="24" viewBox="0 0 172 24" width="172" xmlns="http://www.w3.org/2000/svg"><path d="m54.248 0-8.943 7.127-5.296-7.127h-13.521l9.154 11.404-14.205 11.687h8.994l9.157-7.319 5.289 7.302h13.655l-9.37-12.231 14.084-10.843zm9.626 7.565-4.346 15.526h7.378l4.333-15.526zm11.858.021-4.329 15.507h4.083l2.46-8.956 3.096 8.966h3.846l7.555-8.966-2.526 8.944h7.677l4.332-15.487h-8.502l-7.415 8.943-3.053-8.951zm60.748-.005-11.99 15.518h5.064l2.435-3.32h7.036l.784 3.32h7.519l-3.768-15.534-7.079.016zm1.128 4.464.838 4.186h-3.93zm-26.036 2.291 2.508-.005c2.134-.007 3.465-.956 3.99-2.849.486-1.747-.402-1.696-2.662-1.69l-2.563.006zm-1.879 6.548 2.141-.007c2.803-.006 4.471-.048 5.007-1.972.61-2.202-.53-2.376-3.421-2.368l-2.427.005zm-7.856 2.226 4.303-15.5 11.5-.03c5.923-.015 8.531 1.247 7.828 3.781-.501 1.802-2.609 2.96-6.321 3.476 4.162.506 5.935 1.87 5.316 4.096-.763 2.748-4.04 4.128-9.839 4.144zm64.662-15.545-6.958 6.14-4.366-6.124-7.71-.016 6.483 9.02-1.809 6.509h6.804l1.625-5.731 10.899-9.798zm-161.794.016-4.705 15.51 19.931.018.966-3.532-12.027-.009.996-3.522 8.473.006.835-3.01-8.492.016.637-2.284h10.222l.845-3.193z" fill="#121212" fill-rule="evenodd"/></svg>